<svg xmlns="http://www.w3.org/2000/svg" width="1em" viewBox="0 0 79 26">
  <style>
    .st1{fill-rule:evenodd;clip-rule:evenodd;fill:#fff}
  </style>
  <path d="M39.086 26h39.26V0h-39.26v26z" fill-rule="evenodd" clip-rule="evenodd" fill="#af001e"/>
  <path class="st1" d="M32.04 6.8l-2.52 4.83-2.51-4.83h-3.06l4.07 7.15v5.25h2.84v-5.25l4.06-7.15h-2.88zM8.6 8.9c-.2-.59-.63-1.09-1.27-1.49V7.4c-.65-.4-1.49-.6-2.54-.6H0v12.4h2.8v-4.77h1.37c.87 0 1.61-.09 2.21-.26s1.09-.42 1.46-.74c.38-.32.65-.71.82-1.19.16-.47.24-1.01.24-1.63 0-.55-.1-1.12-.3-1.71zm-5.8 3.95V8.34l3.86 2.26-3.86 2.25zM22.37 6.8h-2.69l-3.59 9.99h-3.95V6.8H9.3v12.4h8.68l1.03-3h3.89l1.03 3h2.86L22.37 6.8zm-2.67 7.13l1.28-4.03 1.24 4.03H19.7z"/>
  <g>
    <path class="st1" d="M68.468 19.293c-1.355 0-2.749-.095-3.302-.172-.248-.039-.381-.154-.343-.44l.229-1.476c.076-.422.21-.479.706-.44.477.038 1.87.152 2.672.152 1.756 0 2.481-.191 2.481-1.264 0-.728-.496-1.073-1.66-1.38l-1.413-.364c-1.851-.479-2.92-1.647-2.92-3.621 0-2.184 1.527-3.563 4.676-3.563 1.546 0 2.768.095 3.321.172.248.038.382.153.343.44l-.228 1.437c-.077.422-.21.48-.706.44a37.228 37.228 0 00-2.863-.133c-.879 0-1.795.192-1.795 1.188 0 .709.44 1.015 1.394 1.264l1.412.365c2.52.65 3.245 1.896 3.245 3.563 0 2.835-2.214 3.832-5.249 3.832zM63.953 8.679c0 .383-.115.517-.497.517h-3.244v9.464c0 .384-.115.518-.497.518H57.96c-.382 0-.497-.134-.497-.518V9.197h-3.244c-.382 0-.497-.134-.497-.517V7.377c0-.383.115-.518.497-.518h9.237c.382 0 .497.135.497.518V8.68v-.001zM53.258 19.178h-2.08c-.458 0-.611-.134-.802-.46l-2.27-4.1c-.134-.23-.192-.383-.192-.575 0-.076.02-.191.076-.421l.192-.805c.171-.728.362-.479.915-.709.44-.191.878-.498.878-1.474 0-1.074-.553-1.495-1.698-1.495h-1.813v9.521c0 .384-.114.518-.497.518h-1.756c-.381 0-.496-.134-.496-.518V7.377c0-.383.115-.518.496-.518h4.256c2.94 0 4.276 1.342 4.276 3.737 0 1.858-1.05 2.701-1.985 3.295l2.787 4.636c.305.48-.02.652-.287.652v-.001z"/>
  </g>
</svg>
